[IMG]http://img809.imageshack.us/img809/6186/therivermurders2011.jpg[/IMG]


[color=blue][size=5][b]The.River.Murders.2011.DVDRip.XVID.AC3.HQ.Hive-CM8[/b][/size][/color]


[b]Thx Hive

CM8 Doing It Right The First Time :D


Source: R1 DVD-R

Encode:
Dvdscr was some time ago, finally the retail is out, and heres a nice Encode with the usual quality
fine tuning sharpness, rgb, denoise
got very nice
enjoy

Video: 720x400 @bitrate 1800 2pass
Audio: English AC3 5.1 @448
Sample: Yes, included[/b]

 
http://www.imdb.com/title/tt1738387/


General
Complete name                    : The.River.Murders.2011.DVDRip.XVID.AC3.HQ.Hive-CM8.avi
Format                           : AVI
Format/Info                      : Audio Video Interleave
File size                        : 1.45 GiB
Duration                         : 1h 32mn
Overall bit rate                 : 2 257 Kbps
Writing application              : Nandub v1.0rc2
Writing library                  : Nandub build 1853/release

Video
ID                               : 0
Format                           : MPEG-4 Visual
Format profile                   : Advanced Simple@L5
Format settings, BVOP            : 2
Format settings, QPel            : Yes
Format settings, GMC             : No warppoints
Format settings, Matrix          : Default (H.263)
Muxing mode                      : Packed bitstream
Codec ID                         : XVID
Codec ID/Hint                    : XviD
Duration                         : 1h 32mn
Bit rate                         : 1 799 Kbps
Width                            : 720 pixels
Height                           : 400 pixels
Display aspect ratio             : 16:9
Frame rate                       : 23.976 fps
Color space                      : YUV
Chroma subsampling               : 4:2:0
Bit depth                        : 8 bits
Scan type                        : Progressive
Compression mode                 : Lossy
Bits/(Pixel*Frame)               : 0.261
Stream size                      : 1.16 GiB (80%)
Writing library                  : XviD 1.2.1 (UTC 2008-12-04)

Audio
ID                               : 1
Format                           : AC-3
Format/Info                      : Audio Coding 3
Mode extension                   : CM (complete main)
Codec ID                         : 2000
Duration                         : 1h 32mn
Bit rate mode                    : Constant
Bit rate                         : 448 Kbps
Channel(s)                       : 6 channels
Channel positions                : Front: L C R, Side: L R, LFE
Sampling rate                    : 48.0 KHz
Bit depth                        : 16 bits
Compression mode                 : Lossy
Stream size                      : 296 MiB (20%)
Alignment                        : Split accross interleaves
Interleave, duration             : 42 ms (1.00 video frame)
Interleave, preload duration     : 500 ms


Plot:
While investigating a series of murders, a homicide detective becomes the prime suspect,
when the FBI uncovers his close personal ties to all the victims.


Cast:
Ray Liotta         ...    Jack Verdon
Christian Slater   ...    Agent Vuckovitch
Ving Rhames        ...    Captain Langley
Melora Walters     ...    Agent Glover


[img]http://img11.imageshack.us/img11/3248/12893533.png[/img]
[img]http://img834.imageshack.us/img834/8717/ririu.png[/img]
[img]http://img846.imageshack.us/img846/4479/ririri.png[/img]
[img]http://img718.imageshack.us/img718/9430/ririririq.png[/img]
[img]http://img97.imageshack.us/img97/1738/ririririri.png[/img]
[img]http://img197.imageshack.us/img197/1157/riririririri.png[/img]
[img]http://img204.imageshack.us/img204/9002/ririrriiririri.png[/img]




Greetz

ViSiON,SiC,SANTi,3LT0N,YanKeeS,MAGNET,THC,T0XiC,LKRG,FANTASIA-PLAY,FANTASIA-M,FLAWL3SS,
D2U,WBZ,BHRG,NOVA,Vik,Rapeseed,SAFC,goldadvance,MEMORY100,KaN1vE,Unevano,Pinnz,Wayne
Mr Hive,cedrict wink,and all P2P groups
Great Work Guys :D

LOOKING FOR ANYTHING YOU WANT TO LOOK AND SOUND BETTER

CM8@hushmail.com


Enjoy